PathFileType	4	(X/Y/Z)	OpenSim_Sub06_CSBaseline_Gyro.trc
DataRate	CameraRate	NumFrames	NumMarkers	Units	OrigDataRate	OrigDataStartFrame	OrigNumFrames
100	100	13	8	m	100	1062	8492
Frame#	Time	torso_imu_offset_imu	pelvis_imu_offset_imu	tibia_r_imu_offset_imu	femur_r_imu_offset_imu	tibia_l_imu_offset_imu	femur_l_imu_offset_imu	toes_r_imu_offset_imu	toes_l_imu_offset_imu
				X1	Y1	Z1	X2	Y2	Z2	X3	Y3	Z3	X4	Y4	Z4	X5	Y5	Z5	X6	Y6	Z6	X7	Y7	Z7	X8		Y8	Z8	

1062	10.61000000	-0.64826696	0.12287479	0.06579689	-0.73414729	0.09289631	-0.43198264	-0.26422603	-0.00308208	-2.64275690	-0.40374482	1.33842720	2.14340904	0.72976635	-0.13001056	0.34358619	0.19647197	-0.54778514	0.54287042	0.45453203	-4.56838374	-2.87022221	-0.04425809	-0.15493744	0.24700660
1063	10.62000000	-0.63923560	0.11457927	0.01841157	-0.81561643	0.13047552	-0.41715377	-0.61268878	0.01153316	-2.47106889	-0.00916014	1.03266766	1.90334899	1.53021180	-0.06800829	0.66470067	0.54637645	-0.31207129	0.75024871	0.83939985	-4.27561694	-3.19888001	-0.14601295	-0.16211199	0.26176610
1064	10.63000000	-0.61847241	0.10700122	0.00214298	-0.76645883	0.18673612	-0.33787711	-0.95978676	-0.06223234	-2.11430115	0.24045897	0.69477365	1.73813032	1.04158697	-0.10896676	0.63004094	0.94571733	-0.37091174	0.92289754	1.43232078	-4.07018942	-3.50117211	-0.10682439	-0.20072474	0.24066318
1065	10.64000000	-0.60853259	0.07722961	-0.01614682	-0.65232146	0.22541076	-0.25967816	-1.00145257	-0.12943034	-1.70067942	0.38873002	0.50464427	1.78903467	0.22306970	-0.12470707	0.52901135	0.82864776	-0.51006078	1.10733809	1.79548970	-4.21614766	-3.68002430	-0.09261236	-0.24506840	0.23716155
1066	10.65000000	-0.61786166	0.02725018	-0.04634830	-0.51415640	0.23585730	-0.19775056	-0.83310747	-0.20232052	-1.31870363	0.39336418	0.50160171	1.92890947	-0.35087894	-0.18469551	0.46818466	0.35356088	-0.30529504	1.29856823	1.49801814	-3.88436884	-3.41778264	-0.08463685	-0.30855186	0.18234458
1067	10.66000000	-0.63254545	-0.04617220	-0.09828919	-0.42824033	0.21912999	-0.15136957	-0.81150786	-0.40214744	-1.07084828	0.32421846	0.53941472	1.85927067	-0.75281158	-0.23289060	0.36750449	-0.22860024	-0.14237941	1.25844367	0.06725792	-2.24151250	-2.29796822	-0.01322226	-0.35876627	0.07613656
1068	10.67000000	-0.62029282	-0.11375877	-0.14973523	-0.40727144	0.18329989	-0.07991397	-1.01744205	-0.64882073	-0.93233710	0.21830038	0.53651635	1.91059212	-0.98583470	-0.24885363	0.35384867	-0.61000400	-0.05245187	1.19549974	-0.89508586	0.71066197	-0.50890818	0.06824790	-0.40567698	-0.01963090
1069	10.68000000	-0.60343997	-0.15239796	-0.20485833	-0.40054724	0.15013673	0.01412279	-1.20864888	-0.75686463	-0.80795510	0.09280854	0.48255997	1.78603888	-0.92324460	-0.23525366	0.38395639	-0.69679875	-0.09364124	1.15058125	-0.40501161	2.06246892	0.53915062	0.07481578	-0.45960110	-0.06404700
1070	10.69000000	-0.63188016	-0.12495320	-0.28268404	-0.39168974	0.12486879	0.15552589	-1.49491127	-0.95890781	-0.58203313	-0.05088453	0.45863885	1.55681757	-0.55785767	-0.17120135	0.40163046	-0.53374217	-0.15739760	1.08992395	0.12819201	1.76290942	0.82014921	0.08840064	-0.49156737	-0.07900178
1071	10.70000000	-0.66223949	-0.10270185	-0.36924452	-0.39722587	0.09786035	0.21259303	-1.90470191	-1.27322760	-0.17600515	-0.14239602	0.46009652	1.57419158	-0.25672202	-0.15956631	0.43181304	-0.50976328	-0.41702753	1.00879594	0.54783982	1.43748130	0.96718497	0.05837337	-0.55998283	-0.04524584
1072	10.71000000	-0.68747584	-0.05729848	-0.40432616	-0.40950302	0.06334650	0.25777120	-2.17934379	-1.25552504	0.24268059	-0.31262957	0.51098644	1.57182945	0.01586638	-0.15608487	0.47402253	-0.40639310	-0.59676874	0.99187068	0.41279939	1.39496745	1.29437331	0.02688842	-0.56974405	-0.01526674
1073	10.72000000	-0.68363156	-0.01851926	-0.39797870	-0.43548645	0.02273018	0.25776144	-2.09918724	-0.93995086	0.59291511	-0.58905183	0.56576645	1.56838148	0.18929091	-0.10746332	0.50751825	-0.19549653	-0.63627952	0.94241494	-0.07754713	1.62336322	1.70644196	0.02216003	-0.60089880	0.02089568
1074	10.73000000	-0.67241674	-0.00128165	-0.35566117	-0.46348006	-0.00096665	0.23157669	-1.53773473	-0.61794175	0.93527313	-0.80605069	0.59354124	1.54272141	0.29172944	-0.10117905	0.49069871	0.12096378	-0.47422930	0.87091043	-0.61472338	2.03979159	2.01006613	0.06796879	-0.62745946	0.07939669
